# xmcd
#
# Track frame offsets: 
#        150
#        14277
#        32312
#        46130
#        60212
#        72677
#        84132
#        98170
#        120310
#        131575
#        147860
#        159687
#        175280
#        192430
#
# Disc length: 2705 seconds
#
# Revision: 1
# Processed by: cddbd v1.5.2PL0 Copyright (c) Steve Scherf et al.
# Submitted via: ExactAudioCopyFreeDBPlugin 1.0
#
DISCID=af0a8f0e
DTITLE=The Ambassadors - Soul Summit
DYEAR=1997
DGENRE=Soul
TTITLE0=I Really Love You
TTITLE1=Can't Take My Eyes Off You
TTITLE2=Music (Makes You Want to Dance)
TTITLE3=You Gave Me Somebody to Love
TTITLE4=Storm Warning
TTITLE5=Ain't Got the Love (Of One Girl on My Mind)
TTITLE6=I Dig You Baby
TTITLE7=You've Lost That Lovin' Feelin'
TTITLE8=A.W.O.L. (Away Without Love)
TTITLE9=Yes I'm Ready - I'll Try Something New
TTITLE10=If I'm All You Got (I'm All You Need)
TTITLE11=Ain't No Sun Since You've Been Gone
TTITLE12=Happiness
TTITLE13=Proud of My Baby
EXTD=
EXTT0=
EXTT1=
EXTT2=
EXTT3=
EXTT4=
EXTT5=
EXTT6=
EXTT7=
EXTT8=
EXTT9=
EXTT10=
EXTT11=
EXTT12=
EXTT13=
PLAYORDER=
